<svg width="32" height="32" viewBox="0 0 32 32" fill="none" xmlns="http://www.w3.org/2000/svg">
<path d="M31.7209 10.6052C31.2702 10.1412 25.6498 9.63278 19.9315 10.2772C18.7911 10.4052 18.72 10.7306 15.9982 10.8372C13.2773 10.7315 13.2062 10.4061 12.0649 10.2772C6.34665 9.63278 0.726211 10.1421 0.275544 10.6052C0.051544 10.8372 0.051544 12.4515 0.275544 12.6835C0.501322 12.9155 1.19554 13.2221 1.52266 14.3075C1.73332 15.007 1.96265 19.5199 3.55021 20.8648C5.12177 22.1963 10.1831 21.9466 11.84 21.0977C14.0942 19.9439 14.4107 15.9555 14.7662 14.3075C14.9467 13.4728 15.7991 13.4043 15.9973 13.4043C16.1955 13.4043 17.048 13.4728 17.2284 14.3075C17.5849 15.9546 17.9013 19.943 20.1547 21.0977C21.8124 21.9466 26.8729 22.1963 28.4444 20.8648C30.032 19.5199 30.2613 15.007 30.472 14.3075C30.7991 13.223 31.4933 12.9155 31.7191 12.6835C31.9449 12.4523 31.9449 10.8372 31.7209 10.6052Z" fill="white"/>
<path d="M13.017 13.9546C12.9299 15.0702 12.5539 18.3689 11.4552 19.3617C10.2321 20.4666 5.89965 20.7555 4.53077 19.4009C3.81254 18.6906 3.13788 15.8293 3.19477 13.3422C3.22854 11.8497 5.2161 11.5466 8.04988 11.5466C10.8481 11.5466 13.1725 11.9626 13.017 13.9546ZM18.9788 13.9546C19.0659 15.0702 19.4419 18.3689 20.5405 19.3617C21.7637 20.4666 26.0961 20.7555 27.465 19.4009C28.1832 18.6906 28.8579 15.8293 28.801 13.3422C28.7672 11.8497 26.7797 11.5466 23.9459 11.5466C21.1485 11.5466 18.8232 11.9626 18.9788 13.9546Z" fill="#1D1E33"/>
</svg>
