<svg width="24" height="24" viewBox="0 0 24 24" fill="none" xmlns="http://www.w3.org/2000/svg">
<g clip-path="url(#clip0_2_403)">
<path d="M9.86786 7.77321C9.86786 6.58929 10.8268 5.63036 12 5.63036C13.1732 5.63036 14.1321 6.58929 14.1321 7.77321C14.1321 8.95179 13.1732 9.90536 12 9.90536C10.8268 9.90536 9.86786 8.94643 9.86786 7.77321ZM24 2.57143V21.4286C24 22.8482 22.8482 24 21.4286 24H2.57143C1.15179 24 0 22.8482 0 21.4286V2.57143C0 1.15179 1.15179 0 2.57143 0H21.4286C22.8482 0 24 1.15179 24 2.57143ZM7.65536 7.77321C7.65536 10.1625 9.60536 12.1071 12 12.1071C14.3946 12.1071 16.3446 10.1679 16.3446 7.77321C16.3446 5.37321 14.3946 3.42857 12 3.42857C9.60536 3.42857 7.65536 5.36786 7.65536 7.77321ZM17.0036 12.6321C16.7571 12.1446 16.0768 11.7321 15.1768 12.4393C15.1768 12.4393 13.9607 13.4036 12 13.4036C10.0393 13.4036 8.82321 12.4393 8.82321 12.4393C7.92321 11.7321 7.24286 12.1446 6.99643 12.6321C6.57321 13.4946 7.05536 13.9018 8.14286 14.6143C9.06964 15.2089 10.35 15.4286 11.175 15.5143L10.4839 16.2054C9.50893 17.1696 8.58214 18.1071 7.92857 18.7607C6.98571 19.7036 8.50179 21.2143 9.45 20.2929L12.0054 17.7268C12.9804 18.7018 13.9179 19.6393 14.5607 20.2929C15.5036 21.2143 17.025 19.7196 16.0929 18.7607L13.5375 16.2054L12.8411 15.5143C13.6714 15.4286 14.9357 15.1982 15.8518 14.6143C16.9446 13.9018 17.4214 13.4893 17.0036 12.6321Z" fill="white"/>
</g>
<defs>
<clipPath id="clip0_2_403">
<rect width="24" height="24" fill="white"/>
</clipPath>
</defs>
</svg>
