<svg width="32" height="32" viewBox="0 0 32 32" fill="none" xmlns="http://www.w3.org/2000/svg">
<path d="M2.66602 16.0003C2.66602 23.3643 8.63535 29.3337 15.9993 29.3337C23.3633 29.3337 29.3327 23.3643 29.3327 16.0003C29.3327 8.63633 23.3633 2.66699 15.9993 2.66699C8.63535 2.66699 2.66602 8.63633 2.66602 16.0003Z" stroke="#FF1A1A" stroke-width="1.5" stroke-linecap="round" stroke-linejoin="round"/>
<path d="M17.3326 2.73364C17.3326 2.73364 21.3326 8.00031 21.3326 16.0003C21.3326 24.0003 17.3326 29.267 17.3326 29.267M14.666 29.267C14.666 29.267 10.666 24.0003 10.666 16.0003C10.666 8.00031 14.666 2.73364 14.666 2.73364M3.50598 20.667H28.4927M3.50598 11.3336H28.4927" stroke="#FF1A1A" stroke-width="1.5" stroke-linecap="round" stroke-linejoin="round"/>
</svg>
