<svg width="32" height="32" viewBox="0 0 32 32" fill="none" xmlns="http://www.w3.org/2000/svg">
<path d="M2.66602 16.0001C2.66602 23.3641 8.63535 29.3334 15.9993 29.3334C23.3633 29.3334 29.3327 23.3641 29.3327 16.0001C29.3327 8.63608 23.3633 2.66675 15.9993 2.66675C8.63535 2.66675 2.66602 8.63608 2.66602 16.0001Z" stroke="white" stroke-width="1.5" stroke-linecap="round" stroke-linejoin="round"/>
<path d="M17.3326 2.7334C17.3326 2.7334 21.3326 8.00006 21.3326 16.0001C21.3326 24.0001 17.3326 29.2667 17.3326 29.2667M14.666 29.2667C14.666 29.2667 10.666 24.0001 10.666 16.0001C10.666 8.00006 14.666 2.7334 14.666 2.7334M3.50598 20.6667H28.4927M3.50598 11.3334H28.4927" stroke="white" stroke-width="1.5" stroke-linecap="round" stroke-linejoin="round"/>
</svg>
